<?xml version="1.0" encoding="UTF-8" standalone="no"?>
<svg xmlns="http://www.w3.org/2000/svg" xmlns:xlink="http://www.w3.org/1999/xlink" xmlns:serif="http://www.serif.com/" width="100%" height="100%" viewBox="0 0 298 300" version="1.1" xml:space="preserve" style="fill-rule:evenodd;clip-rule:evenodd;stroke-linecap:round;stroke-linejoin:round;stroke-miterlimit:10;">
    <g transform="matrix(1,0,0,1,-400.749,-189.009)">
        <g transform="matrix(1,0,0,1,-8437.19,-316.484)">
            <g transform="matrix(1.20824,-2.48839e-33,2.48839e-33,1.20824,8760.05,459.736)">
                <g>
                    <g transform="matrix(1,0,0,1,200.374,283.325)">
                        <path d="M0,-6.854L-3.467,-4.123L3.278,0L0,-6.854Z" style="fill:rgb(20,16,61);fill-rule:nonzero;stroke:rgb(20,16,61);stroke-width:2.69px;"></path>
                    </g>
                    <g transform="matrix(1,0,0,1,281.14,153.726)">
                        <path d="M0,-21.828C3.688,-21.435 -1.437,-16.907 -1.29,-15.204C-0.913,-15.103 -0.55,-15.131 -0.169,-15.211C2.23,-15.718 4.538,-16.656 6.61,-17.968C11.352,-20.968 16.788,-25.542 22.617,-25.949C22.979,-25.974 23.366,-25.967 23.675,-25.776C24.195,-25.456 24.307,-24.71 24.089,-24.14C23.872,-23.57 23.408,-23.135 22.959,-22.721C23.954,-23.313 25.134,-23.588 26.289,-23.496C26.509,-23.479 26.743,-23.443 26.91,-23.298C29.561,-21.002 25.581,-17.034 24.279,-15.693C24.955,-15.932 25.725,-16.167 26.363,-15.839C27.381,-15.316 27.295,-13.816 26.834,-12.768C23.226,-4.56 13.311,-0.607 5.459,2.044C-0.769,4.146 -9.261,3.811 -14.933,0.387C-20.406,-2.916 -18.909,-7.603 -14.76,-11.245C-11.357,-14.234 -6.422,-21.197 -1.843,-21.765C-1.07,-21.861 -0.465,-21.877 0,-21.828" style="fill:rgb(249,173,134);fill-rule:nonzero;"></path>
                    </g>
                    <g transform="matrix(1,0,0,1,281.14,153.726)">
                        <path d="M0,-21.828C3.688,-21.435 -1.437,-16.907 -1.29,-15.204C-0.913,-15.103 -0.55,-15.131 -0.169,-15.211C2.23,-15.718 4.538,-16.656 6.61,-17.968C11.352,-20.968 16.788,-25.542 22.617,-25.949C22.979,-25.974 23.366,-25.967 23.675,-25.776C24.195,-25.456 24.307,-24.71 24.089,-24.14C23.872,-23.57 23.408,-23.135 22.959,-22.721C23.954,-23.313 25.134,-23.588 26.289,-23.496C26.509,-23.479 26.743,-23.443 26.91,-23.298C29.561,-21.002 25.581,-17.034 24.279,-15.693C24.955,-15.932 25.725,-16.167 26.363,-15.839C27.381,-15.316 27.295,-13.816 26.834,-12.768C23.226,-4.56 13.311,-0.607 5.459,2.044C-0.769,4.146 -9.261,3.811 -14.933,0.387C-20.406,-2.916 -18.909,-7.603 -14.76,-11.245C-11.357,-14.234 -6.422,-21.197 -1.843,-21.765C-1.07,-21.861 -0.465,-21.877 0,-21.828Z" style="fill:none;fill-rule:nonzero;stroke:rgb(20,16,61);stroke-width:3.18px;"></path>
                    </g>
                    <g transform="matrix(1,0,0,1,262.108,200.831)">
                        <path d="M0,-55.112C-0.172,-54.626 6.659,-50.139 7.372,-49.632C12.173,-46.234 17.601,-43.198 21.748,-39.046C18.141,-29.889 10.937,-22.648 3.437,-16.277C-2.977,-10.829 -10.873,-6.427 -18.854,-3.734C-24.39,-1.865 -30.726,0 -36.489,-1.756C-40.543,-2.992 -41.606,-6.226 -42.6,-9.934C-42.844,-10.848 -43.059,-11.777 -43.083,-12.722C-43.129,-14.613 -42.41,-16.43 -41.702,-18.186C-41.393,-18.952 -41.058,-19.755 -40.411,-20.27C-39.857,-20.711 -39.143,-20.885 -38.453,-21.047C-35.391,-21.767 -32.328,-22.487 -29.265,-23.208C-25.029,-24.204 -21.392,-25.682 -17.861,-28.265C-14.587,-30.662 -11.723,-33.6 -9.293,-36.844C-5.182,-42.333 -2.288,-48.646 0,-55.112" style="fill:rgb(240,87,120);fill-rule:nonzero;"></path>
                    </g>
                    <g transform="matrix(1,0,0,1,263.785,200.058)">
                        <path d="M0,-53.745C-1.154,-50.745 -2.4,-47.765 -3.86,-44.875C-5.32,-41.988 -6.941,-39.163 -8.85,-36.521C-10.742,-33.869 -12.918,-31.407 -15.336,-29.203C-16.548,-28.101 -17.823,-27.075 -19.175,-26.132C-20.531,-25.188 -21.966,-24.343 -23.463,-23.637C-24.958,-22.925 -26.51,-22.349 -28.079,-21.88C-28.864,-21.647 -29.654,-21.438 -30.444,-21.248C-31.222,-21.052 -31.979,-20.849 -32.739,-20.613C-34.255,-20.146 -35.76,-19.635 -37.294,-19.245C-38.061,-19.05 -38.833,-18.873 -39.602,-18.688C-39.995,-18.594 -40.328,-18.514 -40.579,-18.425C-40.834,-18.335 -40.981,-18.245 -41.07,-18.166C-41.168,-18.081 -41.289,-17.93 -41.417,-17.694C-41.545,-17.458 -41.674,-17.152 -41.816,-16.792C-42.107,-16.062 -42.386,-15.359 -42.6,-14.68C-42.818,-14 -42.973,-13.343 -43.032,-12.717C-43.063,-12.404 -43.068,-12.103 -43.05,-11.801C-43.031,-11.495 -42.985,-11.175 -42.921,-10.842C-42.856,-10.507 -42.772,-10.161 -42.677,-9.8C-42.579,-9.441 -42.475,-9.053 -42.369,-8.694C-42.158,-7.962 -41.937,-7.255 -41.673,-6.607C-41.15,-5.298 -40.466,-4.248 -39.515,-3.559C-39.39,-3.479 -39.279,-3.382 -39.146,-3.31L-38.753,-3.087L-38.33,-2.899C-38.192,-2.831 -38.031,-2.793 -37.884,-2.736L-37.658,-2.657L-37.404,-2.591L-36.896,-2.458C-36.558,-2.364 -36.205,-2.324 -35.86,-2.251C-34.465,-2.023 -33.015,-1.995 -31.553,-2.121C-28.622,-2.369 -25.67,-3.177 -22.722,-4.138C-21.233,-4.624 -19.781,-5.122 -18.347,-5.682C-16.915,-6.248 -15.496,-6.851 -14.102,-7.51C-11.314,-8.828 -8.61,-10.327 -6.025,-12.004C-4.735,-12.846 -3.464,-13.718 -2.241,-14.65C-1.931,-14.877 -1.628,-15.114 -1.328,-15.353C-1.027,-15.592 -0.72,-15.824 -0.425,-16.07L0.461,-16.805L1.35,-17.566C3.718,-19.609 6.016,-21.706 8.167,-23.925C10.327,-26.135 12.311,-28.488 14.067,-30.978C15.821,-33.47 17.284,-36.136 18.415,-38.925L18.811,-37.015L18.81,-37.016C18.054,-37.765 17.255,-38.482 16.423,-39.175C15.587,-39.865 14.718,-40.527 13.83,-41.175C12.046,-42.467 10.178,-43.694 8.289,-44.945C7.345,-45.571 6.396,-46.206 5.45,-46.859L4.74,-47.355L4.073,-47.811L2.665,-48.763C1.724,-49.404 0.784,-50.051 -0.154,-50.723C-0.624,-51.06 -1.092,-51.402 -1.568,-51.769C-1.806,-51.954 -2.044,-52.142 -2.298,-52.36C-2.426,-52.471 -2.555,-52.584 -2.71,-52.738C-2.788,-52.818 -2.872,-52.903 -2.984,-53.041L-3.081,-53.172C-3.111,-53.211 -3.168,-53.303 -3.206,-53.369C-3.221,-53.392 -3.265,-53.479 -3.29,-53.538L-3.332,-53.637C-3.344,-53.67 -3.355,-53.695 -3.378,-53.773C-3.417,-53.904 -3.443,-54.042 -3.455,-54.177C-3.474,-54.412 -3.439,-54.699 -3.355,-54.932L0,-53.745ZM0,-53.745C0.082,-53.962 0.115,-54.232 0.094,-54.448C0.086,-54.566 0.064,-54.687 0.03,-54.8L-0.008,-54.912L-0.039,-54.986C-0.057,-55.03 -0.096,-55.099 -0.101,-55.108C-0.118,-55.145 -0.16,-55.205 -0.168,-55.216C-0.178,-55.232 -0.194,-55.253 -0.202,-55.262C-0.225,-55.29 -0.211,-55.273 -0.19,-55.253C-0.146,-55.207 -0.063,-55.132 0.023,-55.058C0.198,-54.908 0.402,-54.745 0.61,-54.585C1.029,-54.262 1.472,-53.937 1.92,-53.615C2.818,-52.972 3.74,-52.337 4.667,-51.706L6.065,-50.76L6.796,-50.26L7.476,-49.786C8.389,-49.156 9.317,-48.534 10.256,-47.912C12.133,-46.667 14.044,-45.414 15.92,-44.056C16.857,-43.372 17.785,-42.666 18.693,-41.917C19.597,-41.164 20.48,-40.371 21.329,-39.531L21.33,-39.53C21.85,-39.026 21.987,-38.274 21.735,-37.641L21.726,-37.62C20.495,-34.536 18.898,-31.614 17.022,-28.921C15.142,-26.231 13.041,-23.723 10.787,-21.396C8.54,-19.062 6.174,-16.87 3.739,-14.79L2.824,-14.009L1.882,-13.231C1.569,-12.969 1.244,-12.725 0.925,-12.472C0.605,-12.219 0.284,-11.969 -0.044,-11.73C-1.34,-10.745 -2.683,-9.828 -4.044,-8.943C-6.772,-7.179 -9.62,-5.608 -12.557,-4.225C-14.025,-3.534 -15.522,-2.902 -17.033,-2.307C-18.55,-1.72 -20.092,-1.19 -21.614,-0.702C-24.683,0.271 -27.883,1.146 -31.273,1.413C-32.964,1.545 -34.704,1.507 -36.431,1.213C-36.861,1.124 -37.295,1.065 -37.721,0.946L-38.359,0.774L-38.679,0.688L-39.013,0.571C-39.235,0.488 -39.459,0.423 -39.679,0.32L-40.336,0.019L-40.974,-0.346C-41.186,-0.468 -41.383,-0.624 -41.586,-0.764C-42.382,-1.357 -43.07,-2.097 -43.608,-2.889C-44.149,-3.682 -44.551,-4.515 -44.875,-5.334C-45.2,-6.155 -45.443,-6.963 -45.667,-7.754C-45.781,-8.155 -45.879,-8.532 -45.986,-8.936C-46.09,-9.34 -46.191,-9.764 -46.274,-10.207C-46.356,-10.652 -46.421,-11.115 -46.448,-11.601C-46.475,-12.088 -46.461,-12.582 -46.411,-13.054C-46.313,-14.005 -46.086,-14.893 -45.816,-15.717C-45.547,-16.545 -45.234,-17.312 -44.935,-18.05C-44.782,-18.424 -44.609,-18.85 -44.356,-19.31C-44.104,-19.765 -43.758,-20.268 -43.254,-20.701C-42.744,-21.141 -42.168,-21.409 -41.678,-21.577C-41.18,-21.746 -40.74,-21.841 -40.364,-21.929C-39.592,-22.105 -38.823,-22.291 -38.05,-22.459C-36.503,-22.792 -34.927,-23.006 -33.362,-23.264C-32.971,-23.327 -32.581,-23.398 -32.193,-23.476C-31.807,-23.55 -31.41,-23.63 -31.037,-23.72C-30.287,-23.891 -29.551,-24.104 -28.819,-24.324C-27.36,-24.773 -25.94,-25.314 -24.583,-25.974C-23.224,-26.632 -21.922,-27.399 -20.697,-28.286C-19.466,-29.171 -18.284,-30.152 -17.17,-31.195C-14.931,-33.281 -12.96,-35.65 -11.236,-38.192C-7.76,-43.273 -5.292,-49.019 -3.355,-54.932L0,-53.745Z" style="fill:rgb(20,16,61);fill-rule:nonzero;"></path>
                    </g>
                    <g transform="matrix(0.823369,0.567507,0.567507,-0.823369,263.102,153.28)">
                        <path d="M-2.191,-7.04C4.31,-7.875 16.066,-6.901 22.619,-7.04" style="fill:white;fill-rule:nonzero;stroke:rgb(20,16,61);stroke-width:3.32px;"></path>
                    </g>
                    <g transform="matrix(1,0,0,1,188.909,274.762)">
                        <path d="M0,4.141C0.032,5.92 -0.267,7.657 -0.24,9.403C-0.961,9.679 -1.76,9.636 -2.532,9.598C-6.062,9.427 -9.602,9.461 -13.128,9.703C-13.084,9.334 -13.289,5.971 -13.029,5.853C-14.659,6.591 -16.364,7.164 -18.108,7.562C-19.317,7.837 -20.544,8.029 -21.77,8.219C-30.23,9.537 -38.85,10.855 -47.313,9.563C-48.973,9.31 -50.703,8.914 -51.945,7.786C-52.197,7.555 -52.435,7.278 -52.487,6.941C-52.577,6.37 -52.112,5.863 -51.628,5.546C-51.22,5.279 -50.606,4.839 -50.187,4.687C-44.32,2.549 -38.41,0.653 -32.4,-0.976C-26.54,-2.564 -20.521,-3.667 -14.873,-5.953C-14.084,-6.272 -13.253,-6.621 -12.412,-6.494C-10.646,-6.225 -9.139,-6.714 -7.37,-6.468C-5.601,-6.222 -3.836,-5.498 -2.671,-4.144C-1.41,-2.679 -0.996,-0.69 -0.625,1.205C-0.403,2.345 -0.021,2.98 0,4.141" style="fill:rgb(20,16,61);fill-rule:nonzero;"></path>
                    </g>
                    <g transform="matrix(1,0,0,1,225.872,269.063)">
                        <path d="M0,16.208C5.447,16.52 12.241,17.54 17.237,14.794C17.606,14.591 17.972,14.359 18.235,14.03C18.833,13.283 18.683,12.462 17.991,11.87C16.951,10.981 16.007,10.472 14.669,10.104C7.071,8.009 -0.528,5.914 -8.127,3.819L-16.544,1.499C-17.795,1.154 -19.167,0.924 -20.314,0.316C-21.369,-0.244 -22.365,-0.585 -23.583,-0.699C-26.318,-0.956 -29.618,-1.332 -32.256,-0.404C-33.575,0.06 -34.796,0.957 -35.371,2.231C-35.486,2.487 -35.585,2.399 -35.351,2.553C-35.117,2.706 -35.417,5.299 -35.425,5.67C-35.448,6.848 -35.446,8.026 -35.482,9.203C-35.547,11.303 -35.539,13.4 -35.493,15.516C-32.079,15.278 -28.659,15.138 -25.237,15.092C-25.207,14.145 -25.249,13.276 -25.417,12.357C-25.236,13.346 -22.198,13.713 -21.444,13.904C-19.677,14.352 -17.882,14.68 -16.078,14.93C-10.908,15.645 -5.623,15.893 -0.414,16.184C-0.276,16.191 -0.139,16.199 0,16.208" style="fill:rgb(20,16,61);fill-rule:nonzero;"></path>
                    </g>
                    <g transform="matrix(1,0,0,1,169.474,192.223)">
                        <path d="M0,-11.778C1.904,-7.579 3.88,-3.387 6.468,0.428C11.408,7.707 18.441,13.384 26.092,17.725C27.579,18.569 29.157,19.384 30.865,19.461C32.514,19.535 34.116,18.909 35.58,18.146C37.667,17.056 39.59,15.669 41.371,14.128C49.453,7.133 54.529,-3.225 55.105,-13.898C55.128,-14.317 55.143,-14.745 55.028,-15.149C54.788,-15.989 54.038,-16.569 53.318,-17.065C47.326,-21.195 40.387,-23.739 33.399,-25.773C22.355,-28.986 10.921,-31.036 -0.581,-31.102C-2.053,-31.11 -4.232,-31.313 -5.584,-30.621C-6.852,-29.973 -5.901,-27.937 -5.631,-26.829C-4.814,-23.482 -3.633,-20.236 -2.313,-17.058C-1.576,-15.283 -0.793,-13.528 0,-11.778" style="fill:rgb(191,225,213);fill-rule:nonzero;"></path>
                    </g>
                    <g transform="matrix(1,0,0,1,169.474,192.223)">
                        <path d="M0,-11.778C1.904,-7.579 3.88,-3.387 6.468,0.428C11.408,7.707 18.441,13.384 26.092,17.725C27.579,18.569 29.157,19.384 30.865,19.461C32.514,19.535 34.116,18.909 35.58,18.146C37.667,17.056 39.59,15.669 41.371,14.128C49.453,7.133 54.529,-3.225 55.105,-13.898C55.128,-14.317 55.143,-14.745 55.028,-15.149C54.788,-15.989 54.038,-16.569 53.318,-17.065C47.326,-21.195 40.387,-23.739 33.399,-25.773C22.355,-28.986 10.921,-31.036 -0.581,-31.102C-2.053,-31.11 -4.232,-31.313 -5.584,-30.621C-6.852,-29.973 -5.901,-27.937 -5.631,-26.829C-4.814,-23.482 -3.633,-20.236 -2.313,-17.058C-1.576,-15.283 -0.793,-13.528 0,-11.778Z" style="fill:none;fill-rule:nonzero;stroke:rgb(20,16,61);stroke-width:2.62px;"></path>
                    </g>
                    <g transform="matrix(1,0,0,1,189.586,237.051)">
                        <path d="M0,45.699C0.022,45.493 -4.305,43.031 -4.758,42.706C-7.576,40.687 -10.575,38.484 -13.646,36.862C-14.53,36.395 -16.251,36.008 -16.771,35.086C-17.323,34.104 -17.153,31.962 -17.28,30.83C-17.661,27.441 -17.962,24.043 -18.211,20.642C-18.335,18.935 -19.082,0.412 -19.261,0.401C-17.555,0.504 -15.915,0.057 -14.221,0.027C-12.662,0 -11.102,0.009 -9.542,0.053C-7.393,0.115 -5.246,0.245 -3.104,0.443C-2.036,0.542 1.027,0.478 1.004,2.23C0.847,14.659 0.689,27.089 0.531,39.518C0.505,41.544 0.217,43.685 0,45.699Z" style="fill:rgb(240,87,120);fill-rule:nonzero;stroke:rgb(20,16,61);stroke-width:3.18px;"></path>
                    </g>
                    <g transform="matrix(1,0,0,1,200.685,282.109)">
                        <path d="M0,-45.512C-0.702,-45.479 -1.428,-45.388 -2.261,-45.217C-4.23,-44.811 -6.199,-44.359 -8.067,-43.6C-8.983,-43.229 -11.006,-42.55 -11.311,-41.488C-11.422,-41.101 -11.199,-40.47 -11.183,-40.066C-11.15,-39.179 -11.228,-38.274 -11.247,-37.387C-11.395,-30.528 -11.432,-23.666 -11.357,-16.805C-11.298,-11.261 -11.213,-5.707 -10.961,-0.168C-10.055,0.098 -7.669,-1.959 -6.84,-2.452C-5.177,-3.443 -3.5,-4.41 -1.81,-5.356C-0.179,-6.269 1.465,-7.161 3.119,-8.033C4.299,-8.654 5.927,-8.651 6.078,-10.166C7.178,-21.271 7.465,-32.456 6.935,-43.602C6.918,-43.938 6.883,-44.314 6.628,-44.533C6.457,-44.678 6.222,-44.72 6,-44.756C3.973,-45.085 2.076,-45.61 0,-45.512" style="fill:rgb(240,87,120);fill-rule:nonzero;"></path>
                    </g>
                    <g transform="matrix(1,0,0,1,200.685,282.109)">
                        <path d="M0,-45.512C-0.702,-45.479 -1.428,-45.388 -2.261,-45.217C-4.23,-44.811 -6.199,-44.359 -8.067,-43.6C-8.983,-43.229 -11.006,-42.55 -11.311,-41.488C-11.422,-41.101 -11.199,-40.47 -11.183,-40.066C-11.15,-39.179 -11.228,-38.274 -11.247,-37.387C-11.395,-30.528 -11.432,-23.666 -11.357,-16.805C-11.298,-11.261 -11.213,-5.707 -10.961,-0.168C-10.055,0.098 -7.669,-1.959 -6.84,-2.452C-5.177,-3.443 -3.5,-4.41 -1.81,-5.356C-0.179,-6.269 1.465,-7.161 3.119,-8.033C4.299,-8.654 5.927,-8.651 6.078,-10.166C7.178,-21.271 7.465,-32.456 6.935,-43.602C6.918,-43.938 6.883,-44.314 6.628,-44.533C6.457,-44.678 6.222,-44.72 6,-44.756C3.973,-45.085 2.076,-45.61 0,-45.512Z" style="fill:none;fill-rule:nonzero;stroke:rgb(20,16,61);stroke-width:0.28px;stroke-linecap:butt;stroke-linejoin:miter;"></path>
                    </g>
                    <g transform="matrix(1,0,0,1,200.692,282.241)">
                        <path d="M0,-45.421C-2.764,-45.316 -5.5,-44.786 -8.094,-43.733C-9.009,-43.361 -11.032,-42.683 -11.337,-41.62C-11.449,-41.234 -11.225,-40.603 -11.209,-40.198C-11.177,-39.312 -11.254,-38.406 -11.273,-37.52C-11.42,-30.66 -11.458,-23.799 -11.384,-16.938C-11.324,-11.394 -11.24,-5.84 -10.988,-0.301C-9.608,0.104 -6.859,-2.58 -5.684,-3.281C-3.284,-4.713 -0.85,-6.089 1.649,-7.343L1.823,-7.431C2.698,-7.873 4.769,-8.317 5.291,-9.115C5.931,-10.097 5.671,-12.595 5.773,-13.76C6.071,-17.18 6.339,-20.603 6.578,-24.026C6.816,-27.451 7.025,-30.878 7.205,-34.306C7.251,-35.186 7.951,-44.32 7.648,-44.389C5.048,-44.978 2.687,-45.525 0,-45.421Z" style="fill:none;fill-rule:nonzero;stroke:rgb(20,16,61);stroke-width:3.18px;"></path>
                    </g>
                    <g transform="matrix(1,0,0,1,203.642,177.634)">
                        <path d="M0,62.191C-9.688,64.955 -20.313,65.25 -30.09,62.725C-35.554,61.314 -40.915,59.352 -45.684,56.292C-48.058,54.768 -50.262,52.991 -52.271,51.01C-53.736,49.566 -56.767,45.765 -56.786,43.567C-56.795,42.535 -56.42,41.542 -56.051,40.579C-50.809,26.896 -45.563,13.206 -39.585,-0.171C-38.294,-3.059 -36.172,0.358 -35.24,1.806C-33.972,3.775 -32.854,5.837 -31.628,7.833C-24.913,18.761 -14.856,27.605 -3.16,32.87C-2.513,41.802 -1.318,53.334 0,62.191Z" style="fill:rgb(240,87,120);fill-rule:nonzero;stroke:rgb(20,16,61);stroke-width:3.18px;"></path>
                    </g>
                    <g transform="matrix(1,0,0,1,238.89,207.465)">
                        <path d="M0,10.954C-0.99,14.133 -3.136,16.822 -5.47,19.196C-13.683,27.552 -24.843,32.619 -36.5,33.801C-37.343,26.269 -37.964,18.787 -38.808,11.256C-38.397,10.977 -37.987,10.699 -37.576,10.421C-35.03,8.694 -32.476,6.962 -30.171,4.923C-28.272,3.242 -26.554,1.363 -24.938,-0.592C-19.873,-6.717 -15.766,-13.633 -12.812,-21.012C-12.659,-21.395 -12.763,-21.855 -12.572,-22.221C-12.381,-22.585 -11.924,-22.847 -11.548,-22.677C-11.243,-22.538 -11.107,-22.188 -11,-21.87C-7.371,-11.074 -3.629,0.159 0,10.954Z" style="fill:rgb(240,87,120);fill-rule:nonzero;stroke:rgb(20,16,61);stroke-width:3.18px;"></path>
                    </g>
                    <g transform="matrix(1,0,0,1,91.7393,215.702)">
                        <path d="M0,-31.319C-0.583,-31.537 -1.225,-31.756 -1.813,-31.553C-2.49,-31.319 -2.881,-30.564 -2.889,-29.847C-2.897,-29.131 -2.596,-28.449 -2.255,-27.817C-0.752,-25.035 1.666,-22.756 4.532,-21.421C0.814,-22.979 -3.428,-23.338 -7.097,-25.018C-8.647,-25.728 -10.281,-26.214 -11.883,-26.839C-13.718,-27.554 -15.593,-28.304 -17.591,-28.336C-18.145,-28.344 -18.857,-28.15 -18.896,-27.598C-18.911,-27.37 -18.794,-27.155 -18.671,-26.962C-17.959,-25.845 -17.001,-25.301 -16.005,-24.505C-15.128,-23.802 -14.436,-22.925 -13.52,-22.237C-11.241,-20.522 -8.682,-19.177 -5.969,-18.295C-10.212,-20.386 -14.763,-21.851 -19.429,-22.627C-20.662,-22.832 -21.971,-22.981 -23.128,-22.506C-23.358,-22.412 -23.595,-22.276 -23.688,-22.047C-23.796,-21.778 -23.675,-21.476 -23.537,-21.223C-22.733,-19.757 -22.055,-18.647 -20.489,-17.927C-16.879,-16.269 -12.966,-15.399 -9.088,-14.54C-13.658,-15.132 -18.228,-15.724 -22.799,-16.316C-23.391,-16.392 -24.008,-16.466 -24.571,-16.267C-25.133,-16.069 -25.616,-15.505 -25.511,-14.918C-25.443,-14.532 -25.149,-14.229 -24.852,-13.974C-23.358,-12.697 -21.461,-12.004 -19.583,-11.424C-15.789,-10.253 -11.884,-9.434 -7.937,-8.986C-9.454,-8.874 -10.97,-8.761 -12.486,-8.649C-13.432,-8.578 -14.397,-8.505 -15.271,-8.133C-16.143,-7.763 -16.923,-7.037 -17.099,-6.106C-17.128,-5.955 -17.138,-5.788 -17.057,-5.658C-16.996,-5.561 -16.892,-5.499 -16.792,-5.441C-6.567,0.437 5.626,-1.896 16.608,-3.692C19.632,-4.187 22.957,-5.192 24.42,-7.883C25.059,-9.058 25.254,-10.418 25.364,-11.75C25.508,-13.472 25.529,-15.205 25.426,-16.93C25.352,-18.169 25.206,-19.438 24.63,-20.538C24.133,-21.489 23.343,-22.256 22.502,-22.922C20.957,-24.146 19.159,-25.132 17.268,-25.705C15.707,-26.177 14.221,-26.028 12.663,-26.59C8.426,-28.12 4.22,-29.744 0,-31.319" style="fill:rgb(249,173,133);fill-rule:nonzero;"></path>
                    </g>
                    <g transform="matrix(1,0,0,1,91.7393,215.702)">
                        <path d="M0,-31.319C-0.583,-31.537 -1.225,-31.756 -1.813,-31.553C-2.49,-31.319 -2.881,-30.564 -2.889,-29.847C-2.897,-29.131 -2.596,-28.449 -2.255,-27.817C-0.752,-25.035 1.666,-22.756 4.532,-21.421C0.814,-22.979 -3.428,-23.338 -7.097,-25.018C-8.647,-25.728 -10.281,-26.214 -11.883,-26.839C-13.718,-27.554 -15.593,-28.304 -17.591,-28.336C-18.145,-28.344 -18.857,-28.15 -18.896,-27.598C-18.911,-27.37 -18.794,-27.155 -18.671,-26.962C-17.959,-25.845 -17.001,-25.301 -16.005,-24.505C-15.128,-23.802 -14.436,-22.925 -13.52,-22.237C-11.241,-20.522 -8.682,-19.177 -5.969,-18.295C-10.212,-20.386 -14.763,-21.851 -19.429,-22.627C-20.662,-22.832 -21.971,-22.981 -23.128,-22.506C-23.358,-22.412 -23.595,-22.276 -23.688,-22.047C-23.796,-21.778 -23.675,-21.476 -23.537,-21.223C-22.733,-19.757 -22.055,-18.647 -20.489,-17.927C-16.879,-16.269 -12.966,-15.399 -9.088,-14.54C-13.658,-15.132 -18.228,-15.724 -22.799,-16.316C-23.391,-16.392 -24.008,-16.466 -24.571,-16.267C-25.133,-16.069 -25.616,-15.505 -25.511,-14.918C-25.443,-14.532 -25.149,-14.229 -24.852,-13.974C-23.358,-12.697 -21.461,-12.004 -19.583,-11.424C-15.789,-10.253 -11.884,-9.434 -7.937,-8.986C-9.454,-8.874 -10.97,-8.761 -12.486,-8.649C-13.432,-8.578 -14.397,-8.505 -15.271,-8.133C-16.143,-7.763 -16.923,-7.037 -17.099,-6.106C-17.128,-5.955 -17.138,-5.788 -17.057,-5.658C-16.996,-5.561 -16.892,-5.499 -16.792,-5.441C-6.567,0.437 5.626,-1.896 16.608,-3.692C19.632,-4.187 22.957,-5.192 24.42,-7.883C25.059,-9.058 25.254,-10.418 25.364,-11.75C25.508,-13.472 25.529,-15.205 25.426,-16.93C25.352,-18.169 25.206,-19.438 24.63,-20.538C24.133,-21.489 23.343,-22.256 22.502,-22.922C20.957,-24.146 19.159,-25.132 17.268,-25.705C15.707,-26.177 14.221,-26.028 12.663,-26.59C8.426,-28.12 4.22,-29.744 0,-31.319Z" style="fill:none;fill-rule:nonzero;stroke:rgb(19,17,62);stroke-width:3.5px;"></path>
                    </g>
                    <g transform="matrix(1,0,0,1,156.438,179.331)">
                        <path d="M0,28.912C-3.015,30.032 -6.092,30.955 -8.926,31.836C-20.809,35.523 -33.532,35.861 -45.758,33.552C-47.555,24.44 -49.095,15.279 -50.376,6.082C-31.872,6.663 -12.6,2.402 4.258,-5.249C6.968,-6.478 10.368,-6.949 13.304,-6.459C16.237,-5.968 19.031,-4.472 20.902,-2.159C23.857,1.492 24.182,6.826 22.451,11.192C20.07,17.194 14.679,20.432 9.719,24.012C6.874,26.066 3.478,27.621 0,28.912" style="fill:rgb(240,87,120);fill-rule:nonzero;"></path>
                    </g>
                    <g transform="matrix(1,0,0,1,156.438,179.331)">
                        <path d="M0,28.912C-3.015,30.032 -6.092,30.955 -8.926,31.836C-20.809,35.523 -33.532,35.861 -45.758,33.552C-47.555,24.44 -49.095,15.279 -50.376,6.082C-31.872,6.663 -12.6,2.402 4.258,-5.249C6.968,-6.478 10.368,-6.949 13.304,-6.459C16.237,-5.968 19.031,-4.472 20.902,-2.159C23.857,1.492 24.182,6.826 22.451,11.192C20.07,17.194 14.679,20.432 9.719,24.012C6.874,26.066 3.478,27.621 0,28.912Z" style="fill:none;fill-rule:nonzero;stroke:rgb(19,17,62);stroke-width:4px;"></path>
                    </g>
                    <g transform="matrix(0.181303,0.983427,0.983427,-0.181303,135.629,195.024)">
                        <path d="M-11.842,-14.225C-2.209,-13.661 7.455,-13.66 17.087,-14.225" style="fill:none;fill-rule:nonzero;stroke:rgb(19,17,62);stroke-width:4px;"></path>
                    </g>
                    <g transform="matrix(1,0,0,1,200.965,155.764)">
                        <path d="M0,62.484C-9.297,59.572 -18.441,54.973 -26.188,49.044C-26.528,48.784 -26.866,48.519 -27.2,48.251C-30.239,45.811 -33.031,43.04 -35.358,39.906C-36.521,38.34 -37.5,36.687 -38.438,34.98C-38.92,34.099 -39.147,33.713 -38.897,32.661C-38.261,29.858 -36.56,27.168 -35.462,24.516C-38.906,26.972 -42.618,29.051 -46.51,30.708C-46.813,23.08 -46.945,15.409 -47.308,7.804C-47.322,7.509 -47.609,4.972 -47.447,4.895C-44.233,3.337 -41.264,1.891 -38.234,0C-32.059,23.546 -15.817,44.271 5.569,55.896C3.872,58.061 1.698,60.32 0,62.484Z" style="fill:rgb(240,87,120);fill-rule:nonzero;stroke:rgb(20,16,61);stroke-width:3.18px;"></path>
                    </g>
                    <g transform="matrix(1,0,0,1,223.396,213.883)">
                        <path d="M0,-26.823C-0.928,-25.571 -1.848,-24.313 -2.821,-23.091C-8.353,-16.139 -14.141,-9.391 -20.166,-2.864C-22.1,-0.769 -23.978,-0.033 -23.729,3.198C-23.675,3.893 -23.596,4.585 -23.491,5.275C-23.476,5.371 -23.454,5.479 -23.373,5.532C-23.305,5.577 -23.216,5.571 -23.135,5.558C-20.956,5.207 -18.416,3.857 -16.479,2.777C-14.779,1.829 -13.148,0.768 -11.523,-0.302C-6.575,-3.561 -1.712,-7.506 1.736,-12.367C4.584,-16.383 5.976,-20.634 7.057,-25.354C7.366,-26.705 7.569,-28.135 7.169,-29.462C6.78,-30.757 5.424,-32.4 3.992,-31.725C2.448,-30.998 0.992,-28.163 0,-26.823" style="fill:rgb(240,87,120);fill-rule:nonzero;"></path>
                    </g>
                    <g transform="matrix(1,0,0,1,223.396,213.883)">
                        <path d="M0,-26.823C-0.928,-25.571 -1.848,-24.313 -2.821,-23.091C-8.353,-16.139 -14.141,-9.391 -20.166,-2.864C-22.1,-0.769 -23.978,-0.033 -23.729,3.198C-23.675,3.893 -23.596,4.585 -23.491,5.275C-23.476,5.371 -23.454,5.479 -23.373,5.532C-23.305,5.577 -23.216,5.571 -23.135,5.558C-20.956,5.207 -18.416,3.857 -16.479,2.777C-14.779,1.829 -13.148,0.768 -11.523,-0.302C-6.575,-3.561 -1.712,-7.506 1.736,-12.367C4.584,-16.383 5.976,-20.634 7.057,-25.354C7.366,-26.705 7.569,-28.135 7.169,-29.462C6.78,-30.757 5.424,-32.4 3.992,-31.725C2.448,-30.998 0.992,-28.163 0,-26.823Z" style="fill:none;fill-rule:nonzero;stroke:rgb(20,16,61);stroke-width:3.32px;"></path>
                    </g>
                    <g transform="matrix(1,0,0,1,204.228,222.874)">
                        <path d="M0,2.211C0.058,2.758 0.264,3.281 0.63,3.692C1.49,4.656 3.03,4.786 4.204,4.25C4.895,3.935 5.503,3.405 5.829,2.72C7.558,-0.921 1.75,-2.575 0.287,0.517C0.04,1.039 -0.061,1.638 0,2.211" style="fill:rgb(20,16,61);fill-rule:nonzero;"></path>
                    </g>
                    <g transform="matrix(0.218633,0.975807,0.975807,-0.218633,205.634,232.073)">
                        <path d="M3.257,-0.368C4.075,-0.087 4.644,0.706 4.841,1.548C5.146,2.851 4.516,4.403 3.257,4.855C2.335,5.187 1.235,4.86 0.584,4.126C-1.129,2.19 0.539,-1.299 3.257,-0.368" style="fill:rgb(20,16,61);fill-rule:nonzero;"></path>
                    </g>
                    <g transform="matrix(0.175372,0.984502,0.984502,-0.175372,210.969,195.524)">
                        <path d="M-8.139,-9.718C0.091,-8.445 6.772,-9.477 11.601,-9.718" style="fill:none;fill-rule:nonzero;stroke:rgb(20,16,61);stroke-width:3.18px;"></path>
                    </g>
                    <g transform="matrix(1,0,0,1,170.523,201.219)">
                        <path d="M0,-27.302C-0.206,-26.28 -0.352,-25.259 -0.368,-24.278C-0.39,-22.842 -0.32,-21.405 -0.182,-19.976C0.097,-17.085 0.684,-14.249 1.36,-11.43C2.729,-5.713 4.512,-0.602 7.108,4.715C9.438,2.79 11.813,1.101 14.098,-0.888C16.718,-3.167 19.338,-5.447 21.958,-7.726C23.283,-8.879 25.251,-10.294 25.51,-12.177C25.627,-13.031 25.219,-13.941 25.164,-14.812C25.09,-15.95 24.915,-17.103 24.3,-18.088C23.612,-19.191 22.48,-19.928 21.38,-20.62C14.978,-24.651 8.406,-28.409 1.686,-31.884C1.559,-31.949 1.413,-32.017 1.278,-31.969C1.116,-31.91 1.054,-31.717 1.015,-31.548C0.698,-30.2 0.291,-28.749 0,-27.302" style="fill:rgb(247,215,118);fill-rule:nonzero;"></path>
                    </g>
                    <g transform="matrix(1,0,0,1,170.523,201.219)">
                        <path d="M0,-27.302C-0.206,-26.28 -0.352,-25.259 -0.368,-24.278C-0.39,-22.842 -0.32,-21.405 -0.182,-19.976C0.097,-17.085 0.684,-14.249 1.36,-11.43C2.729,-5.713 4.512,-0.602 7.108,4.715C9.438,2.79 11.813,1.101 14.098,-0.888C16.718,-3.167 19.338,-5.447 21.958,-7.726C23.283,-8.879 25.251,-10.294 25.51,-12.177C25.627,-13.031 25.219,-13.941 25.164,-14.812C25.09,-15.95 24.915,-17.103 24.3,-18.088C23.612,-19.191 22.48,-19.928 21.38,-20.62C14.978,-24.651 8.406,-28.409 1.686,-31.884C1.559,-31.949 1.413,-32.017 1.278,-31.969C1.116,-31.91 1.054,-31.717 1.015,-31.548C0.698,-30.2 0.291,-28.749 0,-27.302Z" style="fill:none;fill-rule:nonzero;stroke:rgb(20,16,61);stroke-width:3.18px;"></path>
                    </g>
                    <g transform="matrix(1,0,0,1,224.951,197.927)">
                        <path d="M0,-23.946C1.323,-24.746 2.65,-25.541 3.98,-26.332C4.544,-26.666 5.259,-27.002 5.811,-26.64C6.177,-26.401 6.324,-25.936 6.437,-25.507C8.76,-16.688 7.834,-7.305 4.352,1.023C3.502,3.056 2.097,2.173 0.352,1.679C-3.452,0.605 -7.194,-0.701 -10.848,-2.232C-13.111,-3.179 -15.329,-4.222 -17.524,-5.324C-18.946,-6.038 -21.276,-6.735 -21.406,-8.695C-21.581,-11.333 -15.144,-14.386 -13.391,-15.534C-8.971,-18.432 -4.508,-21.22 0,-23.946" style="fill:rgb(247,215,118);fill-rule:nonzero;"></path>
                    </g>
                    <g transform="matrix(1,0,0,1,224.951,197.927)">
                        <path d="M0,-23.946C1.323,-24.746 2.65,-25.541 3.98,-26.332C4.544,-26.666 5.259,-27.002 5.811,-26.64C6.177,-26.401 6.324,-25.936 6.437,-25.507C8.76,-16.688 7.834,-7.305 4.352,1.023C3.502,3.056 2.097,2.173 0.352,1.679C-3.452,0.605 -7.194,-0.701 -10.848,-2.232C-13.111,-3.179 -15.329,-4.222 -17.524,-5.324C-18.946,-6.038 -21.276,-6.735 -21.406,-8.695C-21.581,-11.333 -15.144,-14.386 -13.391,-15.534C-8.971,-18.432 -4.508,-21.22 0,-23.946Z" style="fill:none;fill-rule:nonzero;stroke:rgb(20,16,61);stroke-width:3.18px;"></path>
                    </g>
                    <g transform="matrix(1,0,0,1,193.429,185.067)">
                        <path d="M0,6.322C0.26,7.155 0.623,7.966 1.17,8.645C2.333,10.091 4.208,10.789 6.047,11.035C7.989,11.294 10.023,11.106 11.79,10.262C13.558,9.419 15.031,7.876 15.568,5.992C16.479,2.79 14.399,-0.772 11.376,-2.168C5.304,-4.972 -2.262,-0.921 0,6.322Z" style="fill:rgb(247,215,118);fill-rule:nonzero;stroke:rgb(20,16,61);stroke-width:3.18px;"></path>
                    </g>
                    <g transform="matrix(1,0,0,1,161.901,39.7249)">
                        <path d="M0,81.569C-4.117,80.503 -8.378,79.173 -12.986,77.517C-14.274,77.054 -15.62,76.554 -16.986,76.031C-17.297,75.912 -17.64,75.757 -18.003,75.593C-18.86,75.206 -19.831,74.767 -20.862,74.593C-21.36,74.508 -21.813,74.492 -22.214,74.477C-22.667,74.461 -23.025,74.447 -23.348,74.348C-24.178,74.093 -24.963,73.672 -25.62,73.131C-26.206,72.647 -26.612,72.127 -26.794,71.624C-27.006,71.041 -26.798,69.823 -26.33,68.907C-26.203,68.674 -25.605,68.043 -25.075,67.585C-24.644,67.214 -24.407,66.664 -24.434,66.095C-24.46,65.527 -24.746,65.001 -25.209,64.671C-26.394,63.827 -27.478,63.134 -28.473,62.511C-29.377,61.944 -30.088,61.028 -30.425,59.997C-31.213,57.585 -29.748,54.194 -27.939,52.437C-24.256,48.858 -20.758,45.316 -16.598,40.953C-13.765,37.982 -11.495,34.686 -9.3,31.499C-8.866,30.87 -8.431,30.238 -7.99,29.607C-6.097,26.895 -3.874,24.416 -1.382,22.238C0.79,20.34 3.359,19.07 6.08,17.726C6.581,17.479 7.083,17.231 7.584,16.977C8.089,16.723 8.604,16.487 9.104,16.26C10.601,15.575 12.15,14.868 13.656,13.558C15.55,11.91 17.13,9.99 18.657,8.133C20.616,5.752 22.466,3.503 24.859,1.898C26.738,0.639 28.654,0 30.556,0C33.143,0 35.765,1.16 38.348,3.448C39.65,4.602 40.127,7.474 40.191,8.39C40.231,8.952 40.524,9.468 40.988,9.788C41.302,10.004 41.671,10.117 42.044,10.117C42.223,10.117 42.402,10.091 42.577,10.038C42.578,10.038 43.104,9.891 43.777,9.891C44.187,9.891 44.556,9.945 44.876,10.051C46.584,10.618 47.635,12.863 47.789,14.787C47.952,16.822 47.116,18.952 45.551,20.485C41.378,24.57 36.011,27.764 30.819,30.853C29.241,31.792 27.609,32.763 26.043,33.741C17.158,39.288 8.509,45.423 0.337,51.977C-0.384,52.555 -1.219,53.133 -2.08,53.648C-2.482,53.888 -3.091,54.253 -3.551,54.883C-4.122,55.665 -4.253,56.551 -4.304,57.236C-4.52,60.149 -3.806,62.901 -3.116,65.561L-2.951,66.202C-1.657,71.239 -0.666,76.401 0,81.569" style="fill:rgb(220,210,203);fill-rule:nonzero;"></path>
                    </g>
                    <g transform="matrix(1,0,0,1,192.457,124.002)">
                        <path d="M0,-86.131C-2.227,-86.131 -4.487,-85.423 -6.729,-83.919C-11.326,-80.835 -13.985,-75.713 -18.117,-72.118C-19.892,-70.573 -21.787,-69.974 -23.807,-68.955C-27.077,-67.305 -30.383,-65.86 -33.158,-63.435C-35.761,-61.16 -38.087,-58.567 -40.066,-55.732C-42.76,-51.873 -45.227,-48.032 -48.496,-44.603C-52.306,-40.607 -55.827,-37.018 -59.787,-33.17C-62.077,-30.944 -63.777,-26.87 -62.743,-23.704C-62.277,-22.278 -61.287,-20.994 -60.013,-20.196C-58.921,-19.512 -57.91,-18.858 -56.841,-18.096C-56.841,-18.096 -58.147,-16.971 -58.535,-16.214C-59.133,-15.047 -59.55,-13.277 -59.092,-12.019C-58.76,-11.105 -58.106,-10.336 -57.355,-9.716C-56.501,-9.012 -55.506,-8.482 -54.449,-8.157C-53.507,-7.868 -52.65,-8.012 -51.727,-7.857C-50.549,-7.657 -49.319,-6.941 -48.205,-6.514C-46.864,-6.001 -45.519,-5.501 -44.168,-5.015C-39.475,-3.33 -34.712,-1.827 -29.872,-0.622C-29.548,-0.541 -29.143,-0.352 -29.188,-0.02C-29.161,-0.006 -29.133,0 -29.105,0C-28.897,0 -28.66,-0.351 -28.566,-0.554C-28.46,-0.784 -28.487,-1.05 -28.516,-1.302C-29.188,-7.11 -30.256,-12.873 -31.71,-18.536C-32.417,-21.284 -33.22,-24.076 -33.011,-26.904C-32.975,-27.394 -32.899,-27.904 -32.61,-28.3C-32.375,-28.622 -32.025,-28.835 -31.683,-29.039C-30.781,-29.578 -29.878,-30.196 -29.058,-30.854C-20.915,-37.385 -12.386,-43.435 -3.531,-48.964C3.16,-53.141 10.657,-56.949 16.292,-62.468C18.185,-64.321 19.292,-66.998 19.081,-69.638C18.87,-72.278 17.418,-75.151 14.905,-75.985C14.327,-76.177 13.741,-76.239 13.222,-76.239C12.234,-76.239 11.485,-76.013 11.485,-76.013C11.485,-76.013 11.204,-80.284 9.022,-82.217C6.165,-84.747 3.113,-86.131 0,-86.131M-55.235,-14.525L-55.233,-14.525L-55.235,-14.525M0,-82.423C2.121,-82.423 4.329,-81.42 6.563,-79.441C7.142,-78.929 7.685,-77.08 7.786,-75.763C7.853,-74.609 8.395,-73.55 9.353,-72.903C9.974,-72.485 10.673,-72.268 11.387,-72.268C11.767,-72.268 12.15,-72.329 12.529,-72.454C12.614,-72.474 12.892,-72.532 13.222,-72.532C13.498,-72.532 13.663,-72.491 13.737,-72.466C14.515,-72.208 15.271,-70.777 15.386,-69.342C15.503,-67.871 14.857,-66.252 13.698,-65.117C9.684,-61.186 4.413,-58.049 -0.686,-55.016C-2.272,-54.073 -3.913,-53.096 -5.494,-52.109C-14.442,-46.523 -23.15,-40.345 -31.378,-33.746C-32.035,-33.219 -32.799,-32.692 -33.587,-32.22C-34.086,-31.922 -34.922,-31.422 -35.605,-30.486C-36.461,-29.313 -36.645,-28.036 -36.709,-27.178C-36.947,-23.958 -36.16,-20.924 -35.466,-18.248C-35.411,-18.036 -35.356,-17.825 -35.302,-17.614C-34.257,-13.547 -33.413,-9.399 -32.782,-5.232C-36.011,-6.146 -39.357,-7.227 -42.915,-8.505C-44.191,-8.964 -45.524,-9.459 -46.879,-9.977C-47.14,-10.077 -47.458,-10.22 -47.795,-10.373C-48.707,-10.785 -49.841,-11.298 -51.108,-11.512C-51.726,-11.617 -52.267,-11.637 -52.702,-11.652C-52.941,-11.661 -53.27,-11.673 -53.358,-11.701C-53.959,-11.885 -54.525,-12.188 -54.996,-12.577C-55.373,-12.888 -55.524,-13.117 -55.58,-13.225C-55.588,-13.464 -55.487,-13.984 -55.283,-14.426C-55.123,-14.625 -54.729,-15.02 -54.422,-15.285C-53.559,-16.029 -53.084,-17.128 -53.137,-18.266C-53.189,-19.403 -53.761,-20.455 -54.689,-21.116C-55.914,-21.988 -57.025,-22.699 -58.044,-23.338C-58.571,-23.667 -59.021,-24.249 -59.219,-24.856C-59.707,-26.35 -58.765,-28.993 -57.203,-30.511C-53.497,-34.112 -49.984,-37.67 -45.813,-42.045C-42.878,-45.122 -40.566,-48.479 -38.33,-51.725C-37.898,-52.352 -37.465,-52.981 -37.026,-53.61C-35.218,-56.199 -33.096,-58.566 -30.718,-60.644C-28.728,-62.382 -26.264,-63.6 -23.654,-64.89C-23.148,-65.139 -22.642,-65.389 -22.136,-65.644C-21.664,-65.883 -21.187,-66.101 -20.682,-66.331C-19.14,-67.036 -17.391,-67.835 -15.684,-69.32C-13.672,-71.07 -12.042,-73.051 -10.466,-74.966C-8.597,-77.239 -6.831,-79.386 -4.664,-80.839C-3.097,-81.89 -1.527,-82.423 0,-82.423" style="fill:rgb(20,16,61);fill-rule:nonzero;"></path>
                    </g>
                    <g transform="matrix(1,0,0,1,243.06,92.248)">
                        <path d="M0,-10.476C-0.229,-10.831 -0.491,-11.18 -0.786,-11.522C-3.262,-14.387 -7.231,-15.639 -11.017,-15.538C-12.948,-15.487 -14.935,-14.918 -16.589,-13.919C-18.108,-13.002 -19.342,-11.384 -19.944,-9.733C-21.117,-6.516 -20.706,-2.833 -18.79,0.019C-17.263,2.291 -14.838,3.941 -12.165,4.527C-9.269,5.163 -6.106,4.527 -3.714,2.776C0.536,-0.337 2.97,-5.881 0,-10.476" style="fill:rgb(189,226,214);fill-rule:nonzero;"></path>
                    </g>
                    <g transform="matrix(1,0,0,1,243.06,92.248)">
                        <path d="M0,-10.476C-0.229,-10.831 -0.491,-11.18 -0.786,-11.522C-3.262,-14.387 -7.231,-15.639 -11.017,-15.538C-12.948,-15.487 -14.935,-14.918 -16.589,-13.919C-18.108,-13.002 -19.342,-11.384 -19.944,-9.733C-21.117,-6.516 -20.706,-2.833 -18.79,0.019C-17.263,2.291 -14.838,3.941 -12.165,4.527C-9.269,5.163 -6.106,4.527 -3.714,2.776C0.536,-0.337 2.97,-5.881 0,-10.476Z" style="fill:none;fill-rule:nonzero;stroke:rgb(20,16,61);stroke-width:4.25px;"></path>
                    </g>
                    <g transform="matrix(-0.193917,0.981018,0.981018,0.193917,232.044,86.1624)">
                        <path d="M5.674,-2.939C7.098,-2.391 8.115,-0.918 8.118,0.607C8.121,2.133 7.103,3.612 5.674,4.146C2.932,5.17 0.647,2.838 0.493,0.208C0.346,-2.32 3.517,-3.771 5.674,-2.939" style="fill:rgb(20,16,61);fill-rule:nonzero;"></path>
                    </g>
                    <g transform="matrix(1,0,0,1,211.994,50.8963)">
                        <path d="M0,136.465C-3.809,136.465 -7.479,135.862 -11.365,135.225C-24.698,133.035 -35.156,124.817 -41.581,118.308C-44.347,115.506 -47.686,111.693 -48.96,107.038C-49.33,105.687 -49.786,104.321 -50.227,102.999C-51.132,100.284 -52.069,97.477 -52.235,94.834C-52.435,91.703 -52.841,89.031 -53.517,86.424C-53.977,84.648 -54.496,82.871 -54.998,81.152C-56.505,75.991 -58.235,63.377 -58.252,63.25C-58.279,63.058 -58.335,62.871 -58.419,62.696L-60.427,58.527C-60.715,57.929 -61.301,57.53 -61.964,57.483L-63.469,57.374L-61.936,55.183C-61.492,54.548 -61.489,53.705 -61.929,53.067C-62.28,52.558 -62.854,52.266 -63.455,52.266C-63.605,52.266 -63.758,52.284 -63.909,52.322L-66.056,52.865L-64.193,49.967C-63.775,49.317 -63.805,48.476 -64.267,47.856C-64.796,47.146 -66.261,44.95 -66.68,43.359C-66.916,42.461 -66.06,41.213 -65.19,40.111C-60.153,33.723 -54.75,27.358 -49.132,21.191C-43.439,14.943 -36.924,9.23 -29.767,4.211C-25.727,1.378 -22.325,0 -19.367,0C-17.526,0 -15.862,0.525 -14.28,1.603C-12.591,2.756 -10.953,4.35 -9.369,5.892C-8.538,6.701 -7.679,7.537 -6.813,8.309C-5,9.926 -3.307,11.823 -1.78,13.947L5.013,23.397C5.894,24.623 6.748,25.899 7.573,27.132C8.701,28.819 9.868,30.563 11.144,32.24C14.161,36.205 17.28,40.305 20.37,44.425C21.632,46.109 22.878,47.861 24.083,49.556C25.928,52.152 27.836,54.835 29.877,57.377C30.935,58.695 32.042,60.264 32.221,61.898C32.464,64.106 30.385,65.641 26.951,67.401C24.824,68.49 22.651,69.555 20.49,70.564C19.413,71.068 18.312,71.57 17.217,72.057C17.14,72.091 16.941,72.154 16.781,72.204C15.876,72.489 13.992,73.081 13.797,75C13.718,75.783 13.939,76.444 14.086,76.88C16.105,82.892 18.534,88.988 21.509,95.516C22.827,98.407 24.284,101.444 25.839,104.545C26.198,105.26 26.56,105.974 26.924,106.686C26.976,106.787 27.063,107.002 27.14,107.191C27.468,107.999 27.84,108.915 28.569,109.499C29.087,109.915 29.672,110.06 30.142,110.175C30.245,110.201 30.397,110.239 30.465,110.262C30.838,110.469 31.214,110.783 31.555,111.173C31.76,111.408 31.942,111.663 32.096,111.929C32.679,112.938 32.989,114.248 33.071,116.052C33.553,126.685 23.693,132.618 14.304,134.626C10.189,135.506 5.315,136.412 0.367,136.463C0.244,136.464 0.122,136.465 0,136.465" style="fill:rgb(249,173,134);fill-rule:nonzero;"></path>
                    </g>
                    <g transform="matrix(1,0,0,1,192.627,189.214)">
                        <path d="M0,-140.172C-4.024,-140.172 -8.021,-138.04 -11.465,-135.625C-18.63,-130.6 -25.241,-124.845 -31.136,-118.376C-36.737,-112.227 -42.129,-105.886 -47.279,-99.355C-48.394,-97.941 -49.564,-96.23 -49.106,-94.488C-48.501,-92.188 -46.386,-89.354 -46.386,-89.354L-50.788,-82.505L-44.088,-84.198L-47.494,-79.33L-42.73,-78.987L-40.723,-74.818C-40.723,-74.818 -38.975,-62.001 -37.416,-56.663C-36.908,-54.923 -36.399,-53.183 -35.944,-51.429C-35.246,-48.73 -34.896,-46.147 -34.719,-43.367C-34.453,-39.147 -32.507,-34.899 -31.381,-30.791C-30.089,-26.072 -26.912,-22.13 -23.534,-18.708C-15.053,-10.116 -4.357,-3.245 7.702,-1.264C11.592,-0.626 15.409,0 19.368,0C19.497,0 19.625,0 19.753,-0.001C24.582,-0.051 29.349,-0.872 34.058,-1.879C44.161,-4.04 54.822,-10.619 54.29,-22.35C54.212,-24.07 53.93,-25.827 53.067,-27.318C52.852,-27.69 52.6,-28.041 52.318,-28.365C51.854,-28.896 51.304,-29.369 50.682,-29.705C50.237,-29.944 49.456,-29.976 49.095,-30.265C48.593,-30.668 48.237,-31.899 47.941,-32.476C47.58,-33.185 47.22,-33.894 46.863,-34.605C45.376,-37.568 43.938,-40.555 42.563,-43.571C39.815,-49.6 37.32,-55.747 35.21,-62.028C35.09,-62.385 34.97,-62.756 35.008,-63.13C35.104,-64.062 36.623,-64.249 37.338,-64.568C38.443,-65.06 39.545,-65.562 40.641,-66.074C42.834,-67.099 45.009,-68.164 47.163,-69.268C50.013,-70.728 53.846,-72.843 53.431,-76.623C53.204,-78.682 51.986,-80.487 50.689,-82.102C47.355,-86.255 44.427,-90.729 41.22,-95.005C38.161,-99.085 35.073,-103.142 31.986,-107.2C29.816,-110.053 27.988,-113.079 25.885,-116.003C23.621,-119.153 21.356,-122.303 19.092,-125.453C17.548,-127.601 15.755,-129.637 13.787,-131.393C11.293,-133.617 8.871,-136.378 6.131,-138.246C4.127,-139.613 2.06,-140.172 0,-140.172M0,-136.464C1.456,-136.464 2.778,-136.045 4.042,-135.183C5.598,-134.122 7.107,-132.653 8.705,-131.097C9.55,-130.275 10.424,-129.425 11.319,-128.626C13.031,-127.098 14.633,-125.303 16.082,-123.289L22.875,-113.839C23.737,-112.639 24.582,-111.377 25.398,-110.156C26.542,-108.446 27.725,-106.678 29.035,-104.956L29.063,-104.918C32.086,-100.945 35.211,-96.837 38.253,-92.78C39.501,-91.117 40.739,-89.375 41.937,-87.691C43.798,-85.073 45.723,-82.365 47.798,-79.78C48.637,-78.735 49.617,-77.385 49.745,-76.218C49.772,-75.972 49.817,-75.561 48.985,-74.781C48.09,-73.941 46.702,-73.198 45.472,-72.568C43.367,-71.489 41.214,-70.434 39.072,-69.434C38.019,-68.941 36.94,-68.45 35.867,-67.971C35.808,-67.95 35.685,-67.912 35.592,-67.882C34.614,-67.575 31.639,-66.64 31.319,-63.506C31.199,-62.326 31.522,-61.365 31.695,-60.848C33.736,-54.774 36.187,-48.619 39.188,-42.033C40.518,-39.118 41.984,-36.059 43.549,-32.942C43.908,-32.226 44.271,-31.511 44.635,-30.798C44.666,-30.733 44.736,-30.559 44.788,-30.431C45.161,-29.514 45.67,-28.259 46.776,-27.372C47.613,-26.701 48.521,-26.477 49.063,-26.343C49.07,-26.341 49.077,-26.339 49.084,-26.338C49.228,-26.234 49.379,-26.092 49.524,-25.926C49.651,-25.781 49.764,-25.625 49.858,-25.462C50.281,-24.73 50.519,-23.656 50.586,-22.182C50.777,-17.966 49.14,-14.31 45.72,-11.315C42.65,-8.627 38.233,-6.563 33.283,-5.505C29.258,-4.645 24.5,-3.758 19.715,-3.709C19.599,-3.708 19.483,-3.707 19.368,-3.707C15.709,-3.707 12.111,-4.297 8.302,-4.923C-4.539,-7.032 -14.663,-15 -20.896,-21.312C-23.502,-23.954 -26.644,-27.529 -27.806,-31.77C-28.188,-33.169 -28.652,-34.56 -29.102,-35.905C-30.009,-38.627 -30.867,-41.199 -31.019,-43.602C-31.225,-46.852 -31.649,-49.635 -32.355,-52.359C-32.824,-54.167 -33.348,-55.962 -33.857,-57.703C-35.321,-62.713 -37.032,-75.193 -37.049,-75.318C-37.102,-75.703 -37.214,-76.077 -37.382,-76.426L-39.39,-80.595C-39.73,-81.302 -40.278,-81.869 -40.943,-82.235C-40.163,-83.483 -40.194,-85.083 -41.036,-86.303C-41.53,-87.019 -42.244,-87.521 -43.041,-87.755C-42.453,-88.985 -42.584,-90.457 -43.415,-91.571C-43.925,-92.255 -45.125,-94.108 -45.487,-95.314C-45.432,-95.51 -45.21,-95.991 -44.368,-97.059C-39.357,-103.413 -33.983,-109.745 -28.395,-115.879C-22.793,-122.027 -16.381,-127.649 -9.336,-132.589C-5.618,-135.197 -2.563,-136.464 0,-136.464" style="fill:rgb(20,16,61);fill-rule:nonzero;"></path>
                    </g>
                    <g transform="matrix(1,0,0,1,158.883,147.785)">
                        <path d="M0,-21.972C-0.94,-24.919 -1.921,-27.943 -3.878,-30.338C-7.247,-34.461 -13.826,-34.787 -18.754,-34.654C-22.432,-34.554 -25.676,-32.146 -27.909,-29.317C-30.695,-25.786 -33.15,-22.131 -33.749,-17.561C-34.029,-15.426 -33.91,-13.237 -33.393,-11.146C-32.955,-9.368 -32.255,-7.121 -31.195,-5.622C-29.449,-3.155 -26.853,-0.93 -24.609,1.116C-21.461,3.985 -17.867,6.675 -14.287,8.941C-10.733,11.19 -6.682,12.815 -2.406,12.499C1.265,12.227 6.203,9.634 6.661,5.547" style="fill:rgb(249,173,134);fill-rule:nonzero;"></path>
                    </g>
                    <g transform="matrix(1,0,0,1,156.904,146.523)">
                        <path d="M0,-20.079C-0.687,-22.239 -1.364,-24.289 -2.343,-26.031C-2.588,-26.462 -2.843,-26.884 -3.128,-27.269C-3.196,-27.37 -3.27,-27.462 -3.343,-27.557C-3.417,-27.646 -3.488,-27.755 -3.563,-27.828C-3.712,-27.986 -3.858,-28.147 -4.002,-28.31C-4.631,-28.92 -5.392,-29.429 -6.248,-29.838C-7.958,-30.668 -10.025,-31.06 -12.134,-31.249C-13.193,-31.343 -14.276,-31.37 -15.369,-31.37C-15.642,-31.371 -15.916,-31.37 -16.192,-31.363C-16.465,-31.358 -16.763,-31.358 -16.957,-31.339C-17.395,-31.328 -17.832,-31.239 -18.268,-31.145C-19.14,-30.925 -20,-30.544 -20.822,-30.046C-21.64,-29.537 -22.415,-28.911 -23.132,-28.207C-23.485,-27.85 -23.832,-27.482 -24.154,-27.089L-24.398,-26.792L-24.656,-26.466L-25.165,-25.811C-25.834,-24.938 -26.469,-24.059 -27.044,-23.163C-28.197,-21.372 -29.101,-19.503 -29.581,-17.547C-30.06,-15.605 -30.133,-13.521 -29.817,-11.523C-29.778,-11.273 -29.731,-11.024 -29.681,-10.776C-29.63,-10.53 -29.572,-10.284 -29.507,-10.017C-29.376,-9.496 -29.234,-8.983 -29.078,-8.483C-28.765,-7.486 -28.386,-6.521 -27.923,-5.75C-27.867,-5.65 -27.807,-5.564 -27.749,-5.474C-27.692,-5.386 -27.604,-5.271 -27.534,-5.171C-27.389,-4.964 -27.225,-4.761 -27.068,-4.556C-26.744,-4.15 -26.397,-3.75 -26.039,-3.355C-25.314,-2.566 -24.533,-1.798 -23.721,-1.035C-22.913,-0.274 -22.061,0.499 -21.229,1.267C-20.413,2.015 -19.576,2.743 -18.721,3.453C-17.01,4.871 -15.229,6.213 -13.395,7.478C-12.483,8.104 -11.533,8.74 -10.624,9.289C-9.701,9.844 -8.754,10.343 -7.785,10.767C-5.85,11.616 -3.816,12.163 -1.78,12.216C-1.526,12.217 -1.271,12.233 -1.018,12.216C-0.765,12.206 -0.506,12.202 -0.274,12.173C-0.155,12.161 -0.037,12.154 0.083,12.138L0.446,12.078C0.688,12.047 0.929,11.979 1.171,11.926C2.136,11.685 3.096,11.333 3.968,10.849C5.72,9.899 7.165,8.486 7.578,6.69L7.588,6.649C7.72,6.073 8.294,5.713 8.87,5.846C9.378,5.963 9.718,6.425 9.7,6.927C9.65,8.3 9.098,9.634 8.314,10.709C7.526,11.794 6.523,12.654 5.447,13.344C4.362,14.025 3.198,14.549 1.963,14.894C1.652,14.973 1.346,15.066 1.025,15.121L0.546,15.213C0.386,15.24 0.22,15.256 0.057,15.278C-0.275,15.327 -0.586,15.339 -0.902,15.355C-1.217,15.379 -1.531,15.368 -1.847,15.37C-4.373,15.342 -6.826,14.708 -9.067,13.766C-10.191,13.294 -11.271,12.745 -12.309,12.143C-13.357,11.53 -14.308,10.913 -15.284,10.266C-17.219,8.976 -19.099,7.604 -20.917,6.145C-21.826,5.414 -22.719,4.662 -23.593,3.885C-24.446,3.121 -25.291,2.379 -26.154,1.592C-27.013,0.81 -27.87,-0.006 -28.7,-0.881C-29.112,-1.322 -29.52,-1.776 -29.913,-2.254C-30.106,-2.497 -30.304,-2.734 -30.49,-2.991C-30.585,-3.121 -30.674,-3.232 -30.775,-3.381C-30.875,-3.527 -30.977,-3.674 -31.064,-3.82C-31.789,-4.996 -32.245,-6.166 -32.636,-7.332C-32.829,-7.915 -33,-8.497 -33.154,-9.078C-33.229,-9.362 -33.307,-9.67 -33.375,-9.98C-33.444,-10.288 -33.505,-10.599 -33.557,-10.91C-33.973,-13.404 -33.914,-15.961 -33.33,-18.448C-32.749,-20.93 -31.645,-23.219 -30.357,-25.263C-29.712,-26.289 -29.022,-27.264 -28.315,-28.204L-27.783,-28.903L-27.515,-29.249L-27.22,-29.614C-26.825,-30.105 -26.396,-30.572 -25.953,-31.027C-25.054,-31.927 -24.06,-32.754 -22.95,-33.459C-21.835,-34.153 -20.601,-34.726 -19.267,-35.076C-18.595,-35.235 -17.91,-35.37 -17.209,-35.404C-16.835,-35.434 -16.563,-35.434 -16.268,-35.442C-15.975,-35.451 -15.68,-35.454 -15.383,-35.454C-14.201,-35.458 -13.005,-35.434 -11.795,-35.332C-9.385,-35.12 -6.887,-34.704 -4.475,-33.564C-3.277,-32.997 -2.112,-32.242 -1.103,-31.266L-0.388,-30.49C-0.263,-30.36 -0.175,-30.23 -0.069,-30.1C0.033,-29.969 0.136,-29.84 0.229,-29.704C0.622,-29.175 0.96,-28.622 1.279,-28.066C2.534,-25.826 3.26,-23.51 3.957,-21.341C4.307,-20.249 3.706,-19.08 2.614,-18.729C1.522,-18.379 0.353,-18.98 0.002,-20.072L0.001,-20.077L0,-20.079Z" style="fill:rgb(20,16,61);fill-rule:nonzero;"></path>
                    </g>
                    <g transform="matrix(1,0,0,1,227.229,79.3917)">
                        <path d="M0,4.307C1.681,0.293 -1.849,-4.803 -5.502,-6.318C-12.565,-9.246 -20.148,-2.13 -22.009,4.302C-22.261,5.173 -22.437,6.094 -22.258,6.982C-21.959,8.47 -20.37,9.168 -19.349,10.138C-18.219,11.211 -17.203,12.429 -16.122,13.553C-15.787,10.082 -14.225,6.763 -11.284,4.729C-9.591,3.559 -7.483,2.977 -5.429,3.111C-3.464,3.245 -2.795,4.153 -1.44,5.451C-1.35,5.537 -1.251,5.628 -1.128,5.649C-0.92,5.684 -0.739,5.513 -0.609,5.348C-0.356,5.027 -0.155,4.677 0,4.307" style="fill:rgb(20,16,61);fill-rule:nonzero;"></path>
                    </g>
                    <g transform="matrix(1,0,0,1,174.679,118.116)">
                        <path d="M0,5.081C4.38,9.947 11.771,9.755 17.371,7.5C23.012,5.228 27.819,0.767 30.195,-4.866" style="fill:rgb(249,173,134);fill-rule:nonzero;"></path>
                    </g>
                    <g transform="matrix(1,0,0,1,175.466,117.46)">
                        <path d="M0,5.029C0.95,6.053 2.101,6.87 3.378,7.437C4.654,8.006 6.048,8.33 7.469,8.447C10.319,8.675 13.261,8.121 15.94,7.04C18.636,5.943 21.12,4.317 23.202,2.299C25.283,0.282 26.963,-2.138 28.042,-4.786C28.35,-5.545 29.216,-5.91 29.975,-5.601C30.733,-5.292 31.098,-4.427 30.789,-3.668C30.786,-3.659 30.782,-3.651 30.778,-3.643L30.774,-3.634C29.459,-0.606 27.483,2.09 25.095,4.299C22.704,6.51 19.902,8.251 16.869,9.405C15.344,9.983 13.764,10.399 12.151,10.639C10.539,10.877 8.891,10.939 7.249,10.766C5.608,10.592 3.969,10.177 2.448,9.456C0.927,8.74 -0.459,7.707 -1.574,6.445C-1.96,6.007 -1.918,5.338 -1.48,4.951C-1.049,4.571 -0.394,4.605 -0.004,5.024L0,5.029Z" style="fill:rgb(20,16,61);fill-rule:nonzero;"></path>
                    </g>
                    <g transform="matrix(1,0,0,1,173.049,68.3578)">
                        <path d="M0,29.173C-0.122,29.114 -0.236,29.055 -0.312,29.017C-0.42,28.961 -0.518,28.912 -0.596,28.874C-1.229,28.571 -1.849,28.182 -2.505,27.771C-3.035,27.439 -3.583,27.095 -4.167,26.778C-5.76,25.917 -7.319,24.752 -8.763,23.605C-8.2,22.708 -7.28,21.25 -5.804,18.916L-5.572,18.549C-4.147,16.293 -2.649,14.039 -1.12,11.852C0.486,9.553 2.237,7.278 3.93,5.079C5.203,3.426 6.51,1.728 7.772,0C8.625,0.47 9.466,0.976 10.319,1.531L10.613,1.722C11.188,2.096 11.783,2.483 12.383,2.857C12.679,3.041 12.987,3.194 13.285,3.341C13.545,3.47 13.98,3.685 14.099,3.799C14.22,3.914 14.356,4.011 14.503,4.09C14.776,4.235 15.04,4.423 15.347,4.641C15.748,4.926 16.201,5.25 16.76,5.529C16.833,5.566 16.904,5.603 16.976,5.642C16.538,6.443 16.008,7.247 15.492,8.029L15.149,8.551C14.545,9.475 13.904,10.408 13.283,11.312C12.892,11.881 12.501,12.45 12.115,13.023C10.18,15.891 8.179,18.857 6.018,21.648C6.009,21.659 6.001,21.67 5.994,21.68C5.629,22.173 5.266,22.673 4.902,23.176C3.504,25.106 2.06,27.1 0.426,28.693C0.266,28.849 0.126,29.017 0,29.173" style="fill:rgb(220,210,203);fill-rule:nonzero;"></path>
                    </g>
                    <g transform="matrix(1,0,0,1,180.29,99.581)">
                        <path d="M0,-33.579C-0.01,-33.579 -0.02,-33.578 -0.029,-33.575C-0.067,-33.563 -0.094,-33.528 -0.117,-33.496C-3.262,-29.068 -6.763,-24.896 -9.881,-20.434C-11.434,-18.213 -12.935,-15.955 -14.381,-13.664C-14.704,-13.152 -18.462,-7.218 -18.441,-7.201C-16.521,-5.644 -14.473,-3.995 -12.292,-2.815C-11.051,-2.143 -9.913,-1.287 -8.639,-0.677C-8.259,-0.495 -7.4,0 -6.889,0C-6.834,0 -6.785,-0.006 -6.739,-0.018C-6.278,-0.14 -5.876,-0.857 -5.521,-1.203C-3.341,-3.329 -1.573,-5.989 0.242,-8.44C2.418,-11.25 4.423,-14.218 6.41,-17.164C7.422,-18.664 8.47,-20.142 9.459,-21.659C10.253,-22.873 11.137,-24.152 11.768,-25.488C11.879,-25.724 11.982,-25.961 12.076,-26.201C11.55,-26.653 10.969,-27.041 10.348,-27.352C9.527,-27.763 8.929,-28.346 8.133,-28.77C7.626,-29.25 6.722,-29.566 6.121,-29.941C5.437,-30.366 4.763,-30.808 4.087,-31.247C2.785,-32.093 1.485,-32.847 0.104,-33.546C0.07,-33.562 0.035,-33.579 0,-33.579M1.035,-28.787C1.378,-28.579 1.722,-28.362 2.067,-28.138L2.373,-27.939C2.951,-27.563 3.55,-27.173 4.162,-26.793C4.534,-26.561 4.898,-26.381 5.22,-26.221C5.37,-26.147 5.586,-26.039 5.695,-25.976C5.908,-25.791 6.141,-25.63 6.39,-25.497C6.556,-25.409 6.776,-25.253 7.029,-25.072C7.082,-25.035 7.135,-24.997 7.19,-24.958C7.029,-24.71 6.866,-24.461 6.704,-24.216C6.586,-24.038 6.47,-23.862 6.355,-23.686C5.762,-22.778 5.153,-21.891 4.509,-20.954C4.116,-20.383 3.724,-19.812 3.336,-19.238C1.418,-16.394 -0.565,-13.454 -2.69,-10.71C-2.706,-10.689 -2.722,-10.668 -2.738,-10.646C-3.106,-10.149 -3.473,-9.643 -3.841,-9.135C-5.106,-7.389 -6.308,-5.729 -7.636,-4.337C-7.997,-4.543 -8.373,-4.779 -8.763,-5.023C-9.316,-5.371 -9.89,-5.73 -10.527,-6.076C-11.537,-6.622 -12.554,-7.317 -13.539,-8.055C-13.029,-8.865 -12.372,-9.905 -11.529,-11.238L-11.246,-11.684C-9.837,-13.915 -8.356,-16.144 -6.843,-18.309C-5.261,-20.573 -3.524,-22.829 -1.844,-25.012C-0.893,-26.246 0.077,-27.506 1.035,-28.787M2.904,-31.347L2.906,-31.347L2.904,-31.347" style="fill:rgb(20,16,61);fill-rule:nonzero;"></path>
                    </g>
                    <g transform="matrix(1,0,0,1,189.637,83.9471)">
                        <path d="M0,33.965C-1.616,33.965 -3.412,33.813 -5.65,33.486C-6.493,33.363 -7.585,33.173 -8.549,32.787C-9.45,32.427 -10.315,31.88 -11.271,31.253C-14.633,29.048 -16.684,26.83 -17.921,24.059C-19.077,21.469 -19.366,18.544 -18.734,15.822C-17.676,11.264 -15.566,7.933 -12.094,5.34C-8.581,2.717 -4.173,0.852 0.001,0.224C0.992,0.075 2.016,0 3.045,0C6.3,0 9.58,0.739 12.53,2.138C15.532,3.561 17.49,5.226 18.692,7.378C20.93,11.383 21.416,16.502 19.959,20.735C18.926,23.738 17.443,26.028 15.292,27.942C14.751,28.423 14.177,28.889 13.586,29.324C11.202,31.083 8.534,32.392 5.659,33.215C3.895,33.72 2.043,33.965 0,33.965" style="fill:rgb(189,226,214);fill-rule:nonzero;"></path>
                    </g>
                    <g transform="matrix(1,0,0,1,192.682,120.19)">
                        <path d="M0,-38.521C-1.135,-38.521 -2.267,-38.439 -3.383,-38.271C-7.993,-37.578 -12.779,-35.508 -16.501,-32.728C-20.587,-29.676 -22.865,-25.819 -23.999,-20.935C-24.747,-17.709 -24.395,-14.277 -23.046,-11.254C-21.441,-7.658 -18.779,-5.192 -15.565,-3.084C-14.565,-2.429 -13.549,-1.783 -12.439,-1.339C-11.348,-0.903 -10.186,-0.671 -9.024,-0.502C-6.993,-0.206 -5.013,0 -3.045,0C-0.954,0 1.125,-0.232 3.241,-0.837C6.346,-1.726 9.294,-3.167 11.894,-5.084C12.539,-5.56 13.163,-6.065 13.762,-6.599C16.304,-8.861 17.968,-11.569 19.068,-14.766C20.758,-19.676 20.187,-25.412 17.636,-29.976C16.02,-32.869 13.428,-34.756 10.461,-36.163C7.231,-37.694 3.602,-38.521 0,-38.521M0,-33.965C2.919,-33.965 5.862,-33.301 8.51,-32.046C11.062,-30.835 12.698,-29.471 13.658,-27.753C15.59,-24.296 16.013,-19.888 14.76,-16.249C13.859,-13.63 12.58,-11.646 10.733,-10.002C10.242,-9.565 9.723,-9.145 9.189,-8.751C7.024,-7.154 4.601,-5.965 1.988,-5.218C0.43,-4.772 -1.216,-4.556 -3.045,-4.556C-4.548,-4.556 -6.239,-4.7 -8.366,-5.01C-9.086,-5.115 -10.007,-5.274 -10.749,-5.57C-11.455,-5.853 -12.216,-6.337 -13.066,-6.895C-16.043,-8.846 -17.837,-10.763 -18.885,-13.111C-19.841,-15.251 -20.08,-17.664 -19.56,-19.905C-18.618,-23.964 -16.834,-26.793 -13.775,-29.077C-10.602,-31.448 -6.463,-33.2 -2.705,-33.766C-1.826,-33.898 -0.916,-33.965 0,-33.965" style="fill:rgb(20,16,61);fill-rule:nonzero;"></path>
                    </g>
                    <g transform="matrix(1,0,0,1,194.521,100.983)">
                        <path d="M0,4.105C1,2.731 0.915,0.757 0.063,-0.713C-0.789,-2.184 -2.289,-3.19 -3.887,-3.769C-4.844,-4.115 -5.873,-4.327 -6.88,-4.181C-9.938,-3.738 -12.762,-0.403 -12.739,2.648C-12.723,4.802 -11.469,6.902 -9.581,7.938C-9.027,8.241 -8.274,8.432 -7.813,8.001C-6.185,6.475 -3.89,6.336 -1.838,5.459C-1.004,5.103 -0.534,4.838 0,4.105" style="fill:rgb(20,16,61);fill-rule:nonzero;"></path>
                    </g>
                    <g transform="matrix(0.90645,-0.422313,-0.422313,-0.90645,184.112,114.81)">
                        <path d="M-0.742,3.351C4.503,4.185 9.879,4.186 15.125,3.351" style="fill:white;fill-rule:nonzero;stroke:rgb(20,16,61);stroke-width:2.62px;"></path>
                    </g>
                    <g transform="matrix(1,0,0,1,172.582,114.197)">
                        <path d="M0,-1.028C0,-1.028 -11.063,4.813 -16.594,7.543C-16.572,7.493 -16.547,7.612 -16.547,7.612L-16.68,7.551L-21.571,1.223L-2.848,-8.64L0,-1.028Z" style="fill:rgb(20,16,61);fill-rule:nonzero;"></path>
                    </g>
                    <g transform="matrix(1,0,0,1,153.006,135.248)">
                        <path d="M0,1.888C-0.229,-0.733 -1.048,-3.315 -2.351,-5.62C-3.003,-6.773 -3.784,-7.851 -4.665,-8.834L-4.996,-9.202L-5.345,-9.553C-5.573,-9.792 -5.817,-10.012 -6.063,-10.232C-6.552,-10.683 -7.051,-11.073 -7.53,-11.371C-9.276,-12.565 -11.662,-11.963 -13.543,-10.313C-14.5,-9.497 -15.378,-8.492 -16.148,-7.4C-16.535,-6.854 -16.898,-6.288 -17.232,-5.707L-17.357,-5.489C-17.402,-5.412 -17.42,-5.367 -17.455,-5.304C-17.519,-5.191 -17.568,-5.062 -17.624,-4.939C-17.727,-4.685 -17.811,-4.413 -17.883,-4.132C-18.022,-3.566 -18.095,-2.958 -18.11,-2.336C-18.116,-2.025 -18.113,-1.711 -18.092,-1.397C-18.081,-1.24 -18.069,-1.083 -18.052,-0.925L-18.024,-0.692L-17.986,-0.481C-17.811,0.648 -17.273,1.775 -16.556,2.848C-15.828,3.923 -14.926,4.944 -13.949,5.943C-13.461,6.444 -12.956,6.94 -12.439,7.445L-11.661,8.207C-11.412,8.444 -11.17,8.69 -10.914,8.918C-8.901,10.784 -6.628,12.346 -4.157,13.37C-3.537,13.617 -2.91,13.846 -2.27,14.021C-1.953,14.116 -1.623,14.185 -1.309,14.263C-1.008,14.328 -0.706,14.372 -0.408,14.407C0.185,14.465 0.766,14.461 1.247,14.358C1.74,14.26 2.083,14.083 2.389,13.799L2.514,13.681C2.999,13.231 3.756,13.258 4.207,13.742C4.576,14.139 4.623,14.72 4.363,15.164C4.1,15.611 3.728,16.002 3.315,16.312C2.9,16.624 2.44,16.835 1.989,16.979C1.535,17.125 1.082,17.213 0.642,17.246C0.203,17.285 -0.231,17.288 -0.651,17.253C-1.072,17.221 -1.487,17.167 -1.892,17.082C-2.28,16.994 -2.658,16.917 -3.035,16.811C-3.79,16.614 -4.525,16.357 -5.249,16.077C-8.133,14.923 -10.709,13.182 -12.952,11.155C-13.238,10.906 -13.506,10.641 -13.783,10.384L-14.561,9.64C-15.083,9.142 -15.615,8.633 -16.141,8.106C-17.194,7.054 -18.232,5.923 -19.143,4.616C-20.039,3.309 -20.827,1.79 -21.125,0.059L-21.185,-0.262L-21.225,-0.566C-21.25,-0.767 -21.268,-0.97 -21.284,-1.173C-21.316,-1.578 -21.325,-1.987 -21.323,-2.397C-21.31,-3.219 -21.221,-4.053 -21.023,-4.892C-20.92,-5.311 -20.794,-5.731 -20.628,-6.148C-20.541,-6.355 -20.457,-6.563 -20.349,-6.767C-20.299,-6.864 -20.242,-6.982 -20.196,-7.062L-20.053,-7.315C-19.672,-7.988 -19.261,-8.642 -18.818,-9.278C-17.933,-10.549 -16.915,-11.752 -15.684,-12.821C-15.066,-13.353 -14.391,-13.85 -13.624,-14.263C-12.852,-14.678 -12.023,-14.995 -11.141,-15.174C-10.261,-15.354 -9.323,-15.4 -8.378,-15.241C-7.42,-15.086 -6.523,-14.698 -5.781,-14.245C-5.029,-13.788 -4.393,-13.274 -3.818,-12.751C-3.524,-12.49 -3.234,-12.226 -2.961,-11.945L-2.546,-11.528L-2.151,-11.093C-1.103,-9.929 -0.179,-8.656 0.595,-7.298C2.139,-4.581 3.117,-1.539 3.398,1.596C3.482,2.534 2.79,3.363 1.852,3.447C0.914,3.531 0.085,2.839 0.001,1.9L0,1.896L0,1.888Z" style="fill:rgb(20,16,61);fill-rule:nonzero;"></path>
                    </g>
                    <g transform="matrix(1,0,0,1,206.151,131.423)">
                        <path d="M0,-8.574C-1.461,-7.805 -2.252,-6.025 -2.025,-4.39C-1.414,0 2.84,-0.357 6.074,-1.407C11.333,-3.117 16.924,-5.705 21.899,-8.119" style="fill:none;fill-rule:nonzero;stroke:rgb(20,16,61);stroke-width:3.46px;"></path>
                    </g>
                    <g transform="matrix(1,0,0,1,230.878,160.823)">
                        <path d="M0,3.034C1.217,1.273 2.997,-0.068 5.002,-0.85C7.006,-1.631 9.277,-1.873 11.493,-1.37L11.531,-1.361C12.451,-1.152 13.028,-0.236 12.818,0.684C12.609,1.605 11.694,2.182 10.773,1.972C10.711,1.959 10.648,1.941 10.59,1.92C9.149,1.418 7.478,1.388 5.902,1.817C4.328,2.242 2.843,3.125 1.764,4.379L1.754,4.389C1.354,4.854 0.653,4.907 0.189,4.507C-0.244,4.134 -0.316,3.495 0,3.034" style="fill:rgb(20,16,61);fill-rule:nonzero;"></path>
                    </g>
                    <g transform="matrix(1,0,0,1,217.753,160.815)">
                        <path d="M0,-32.864C0.741,-30.927 1.844,-29.126 3.201,-27.509C4.558,-25.889 6.16,-24.449 7.9,-23.173C8.593,-22.665 8.743,-21.69 8.235,-20.997C8.169,-20.907 8.088,-20.821 8.008,-20.749C6.59,-19.5 5.131,-18.261 3.582,-17.102C2.806,-16.523 2.008,-15.965 1.184,-15.437C0.358,-14.909 -0.5,-14.422 -1.368,-13.965C-4.857,-12.163 -8.658,-10.971 -12.554,-10.491C-14.501,-10.247 -16.471,-10.168 -18.435,-10.278C-20.395,-10.386 -22.438,-10.69 -24.385,-11.43C-26.262,-12.133 -28.047,-13.081 -29.681,-14.236C-30.088,-14.525 -30.49,-14.824 -30.878,-15.139C-31.075,-15.293 -31.264,-15.457 -31.456,-15.616C-31.566,-15.711 -31.741,-15.841 -31.92,-15.972C-32.286,-16.241 -32.706,-16.535 -33.141,-16.921C-33.358,-17.112 -33.584,-17.331 -33.812,-17.614C-34.035,-17.897 -34.275,-18.243 -34.432,-18.751C-34.686,-19.573 -34.226,-20.445 -33.404,-20.698C-32.582,-20.952 -31.71,-20.492 -31.456,-19.671L-31.447,-19.639C-30.821,-17.546 -30.087,-15.5 -29.149,-13.586C-28.683,-12.629 -28.166,-11.705 -27.586,-10.836C-27.3,-10.398 -26.994,-9.976 -26.669,-9.581C-26.506,-9.383 -26.353,-9.176 -26.185,-8.983L-25.66,-8.417C-22.819,-5.424 -18.879,-3.488 -14.759,-2.75C-12.692,-2.37 -10.585,-2.327 -8.496,-2.552C-6.402,-2.784 -4.34,-3.324 -2.354,-4.073C-0.372,-4.838 1.524,-5.843 3.311,-7.018C5.088,-8.208 6.749,-9.581 8.271,-11.092L8.278,-11.099L8.363,-11.18C8.976,-11.766 9.948,-11.745 10.534,-11.132C10.939,-10.709 11.053,-10.113 10.884,-9.593C9.823,-6.347 8.922,-3.034 8.077,0.314C7.937,0.869 7.373,1.205 6.818,1.065C6.299,0.934 5.972,0.427 6.047,-0.092C6.555,-3.526 7.127,-6.976 7.877,-10.406L10.484,-8.9L10.475,-8.892C8.81,-7.237 6.992,-5.734 5.035,-4.425C3.07,-3.13 0.974,-2.019 -1.237,-1.166C-3.452,-0.329 -5.771,0.279 -8.145,0.543C-10.52,0.801 -12.952,0.749 -15.306,0.316C-15.894,0.199 -16.485,0.096 -17.062,-0.067C-17.352,-0.144 -17.644,-0.212 -17.931,-0.298L-18.788,-0.572L-19.216,-0.712L-19.636,-0.874L-20.476,-1.199C-20.751,-1.318 -21.023,-1.447 -21.297,-1.572C-21.57,-1.697 -21.846,-1.816 -22.109,-1.965C-24.241,-3.076 -26.25,-4.488 -27.915,-6.269L-28.535,-6.94C-28.735,-7.169 -28.919,-7.413 -29.112,-7.65C-29.5,-8.123 -29.853,-8.612 -30.181,-9.114C-30.848,-10.115 -31.43,-11.156 -31.947,-12.218C-32.986,-14.342 -33.771,-16.543 -34.432,-18.751L-31.447,-19.639C-31.467,-19.697 -31.45,-19.643 -31.382,-19.562C-31.316,-19.48 -31.21,-19.368 -31.075,-19.252C-30.811,-19.015 -30.466,-18.767 -30.078,-18.483C-29.881,-18.338 -29.677,-18.191 -29.432,-17.983C-29.263,-17.843 -29.099,-17.701 -28.928,-17.566C-28.589,-17.292 -28.24,-17.032 -27.885,-16.781C-26.464,-15.776 -24.917,-14.954 -23.29,-14.345C-21.733,-13.752 -20.031,-13.486 -18.263,-13.387C-16.49,-13.288 -14.707,-13.361 -12.942,-13.581C-9.411,-14.015 -5.959,-15.099 -2.802,-16.729C0.354,-18.347 3.175,-20.638 5.949,-23.086L6.058,-20.662C4.154,-22.059 2.363,-23.66 0.813,-25.509C-0.735,-27.353 -2.032,-29.459 -2.908,-31.749L-2.909,-31.751C-3.216,-32.555 -2.814,-33.455 -2.011,-33.762C-1.208,-34.069 -0.307,-33.668 0,-32.864" style="fill:rgb(20,16,61);fill-rule:nonzero;"></path>
                    </g>
                    <g transform="matrix(1,0,0,1,184.248,144.611)">
                        <path d="M0,-9.509C-3.782,-6.909 -6.54,-2.683 -7.383,1.949L-7.384,1.952C-7.487,2.521 -8.031,2.897 -8.6,2.794C-9.147,2.695 -9.516,2.183 -9.45,1.637C-8.803,-3.605 -6.019,-8.571 -1.76,-11.897L-1.754,-11.901C-1.108,-12.406 -0.176,-12.291 0.329,-11.645C0.833,-11 0.718,-10.067 0.072,-9.562C0.05,-9.545 0.023,-9.526 0,-9.509" style="fill:rgb(20,16,61);fill-rule:nonzero;"></path>
                    </g>
                    <g transform="matrix(1,0,0,1,224.403,154.273)">
                        <path d="M0,-1.467C-0.761,-3.503 -1.582,-5.515 -2.462,-7.503C-9.73,-5.591 -17.198,-3.787 -24.649,-2.807C-27.049,-2.491 -29.493,-2.266 -31.754,-1.403C-31.882,-1.355 -32.015,-1.3 -32.098,-1.191C-32.28,-0.953 -32.132,-0.613 -31.982,-0.354C-31.318,0.787 -30.63,1.957 -29.594,2.775C-28.865,3.35 -27.998,3.722 -27.125,4.04C-22.595,5.69 -17.599,6.036 -12.886,5.026C-8.172,4.015 -3.456,1.894 0,-1.467" style="fill:rgb(20,16,61);fill-rule:nonzero;"></path>
                    </g>
                    <g transform="matrix(1,0,0,1,221.483,155.22)">
                        <path d="M0,-13.893C0.701,-11.875 1.717,-9.746 2.417,-7.727C-3.719,-2.687 -11.741,0 -19.676,-0.327C-21.708,-0.411 -23.747,-0.688 -25.671,-1.348C-30.144,-2.883 -33.796,-6.518 -35.573,-10.899C-35.743,-11.318 -35.803,-11.502 -35.854,-11.951C-33.716,-10.399 -31.223,-9.425 -28.761,-8.467C-27.44,-7.953 -26.116,-7.438 -24.739,-7.108C-20.733,-6.15 -16.5,-6.814 -12.569,-8.044C-8.152,-9.425 -3.764,-11.198 0,-13.893Z" style="fill:white;fill-rule:nonzero;stroke:rgb(20,16,61);stroke-width:3.18px;"></path>
                    </g>
                    <g transform="matrix(1,0,0,1,200.956,53.8401)">
                        <path d="M0,-9.532C0.824,-8.319 0.954,-6.774 0.972,-5.308C0.984,-4.352 0.958,-3.386 0.729,-2.458C0.5,-1.53 0.055,-0.633 -0.661,0" style="fill:none;fill-rule:nonzero;stroke:rgb(20,16,61);stroke-width:3.46px;"></path>
                    </g>
                    <g transform="matrix(1,0,0,1,151.021,142.45)">
                        <path d="M0,-14.171C-2.282,-13.421 -4.202,-12.717 -5.227,-10.454C-6.341,-7.993 -6.19,-5.053 -4.554,-2.83C-3.272,-1.09 -1.101,0 1.054,-0.162" style="fill:none;fill-rule:nonzero;stroke:rgb(20,16,61);stroke-width:2.77px;"></path>
                    </g>
                    <g transform="matrix(0.957722,-0.287694,-0.287694,-0.957722,275.701,145.445)">
                        <path d="M-0.297,2.02C4.278,3.241 9.172,3.241 13.746,2.02" style="fill:none;fill-rule:nonzero;stroke:rgb(20,16,61);stroke-width:3.18px;"></path>
                    </g>
                </g>
            </g>
        </g>
    </g>
</svg>
